<svg xmlns="http://www.w3.org/2000/svg" viewBox="0 0 512 512" width="50" height="50">
  <path fill="#ffffff" d="M366.5 292.5c-20.6-20.6-54.6-20.6-75.2 0l-9.4 9.4-49.1-49.1 9.4-9.4c20.6-20.6 20.6-54.6 0-75.2s-54.6-20.6-75.2 0l-9.4 9.4-49.1-49.1 9.4-9.4c20.6-20.6 20.6-54.6 0-75.2C97.3 22.8 68.6 11.4 40 11.4c-7.3 0-14.6.8-21.7 2.3-5.2 1.1-9.2 5.1-10.3 10.3-1.5 7.1-2.3 14.4-2.3 21.7 0 28.6 11.4 57.3 32.5 78.4 20.6 20.6 54.6 20.6 75.2 0l9.4-9.4 49.1 49.1-9.4 9.4c-20.6 20.6-20.6 54.6 0 75.2s54.6 20.6 75.2 0l9.4-9.4 49.1 49.1-9.4 9.4c-20.6 20.6-20.6 54.6 0 75.2s54.6 20.6 75.2 0l19.1-19.1c58.2 21.8 119.6-19.8 119.6-81.9 0-21.2-8.4-41.5-23.4-56.5l-80.3-80.3c-15-15-35.3-23.4-56.5-23.4-62.1 0-103.7 61.4-81.9 119.6l-19.1 19.1zm-21.2-105.9c0 13.3 5.3 26 14.7 35.4l80.3 80.3c9.4 9.4 22.1 14.7 35.4 14.7 18.5 0 35.4-9.9 44.5-25.7-5.9-1.9-12.1-2.9-18.5-2.9-25.5 0-49.3 16.4-58.4 40.2-1.6 4.2-7.6 4.2-9.2 0-9.1-23.8-32.9-40.2-58.4-40.2-6.4 0-12.6 1-18.5 2.9-15.8-9.1-25.7-26-25.7-44.5 0-13.3 5.3-26 14.7-35.4 9.4-9.4 22.1-14.7 35.4-14.7 18.5 0 35.4 9.9 44.5 25.7 5.9 1.9 12.1 2.9 18.5 2.9 25.5 0 49.3-16.4 58.4-40.2 1.6-4.2 7.6-4.2 9.2 0 9.1 23.8 32.9 40.2 58.4 40.2 6.4 0 12.6-1 18.5-2.9 9.1 15.8 26 25.7 44.5 25.7z"/>
  <path fill="#ffffff" d="M112 432c-61.9 0-112 50.1-112 112h224c0-61.9-50.1-112-112-112z"/>
</svg>